<svg version="1.1" xmlns="http://www.w3.org/2000/svg" xmlns:xlink="http://www.w3.org/1999/xlink" viewBox="0 0 172 172"><g fill="none" fill-rule="nonzero" stroke="none" stroke-width="1" stroke-linecap="butt" stroke-linejoin="miter" stroke-miterlimit="10" stroke-dasharray="" stroke-dashoffset="0" font-family="none" font-weight="none" font-size="none" text-anchor="none" style="mix-blend-mode: normal"><path d="M0,172v-172h172v172z" fill="none"></path><g fill="#444444"><path d="M86,14.32975c-39.517,0 -71.66667,32.14967 -71.66667,71.66667c0,11.4165 2.75917,22.7255 7.998,32.86275l-7.66475,27.43758c-0.86717,3.11033 0.01075,6.46075 2.29333,8.74333c1.70567,1.70567 3.999,2.62658 6.3425,2.62658c0.80267,0 1.60892,-0.1075 2.40083,-0.32967l27.45192,-7.66117c10.13008,5.23167 21.4355,7.98725 32.84125,7.98725c39.517,0 71.66667,-32.14967 71.66667,-71.66667c0,-39.517 -32.14608,-71.66667 -71.66308,-71.66667zM84.20833,114.66667l-32.25,0.00358c-2.967,0 -5.375,-2.40442 -5.375,-5.375c0,-2.967 2.40442,-5.375 5.375,-5.375l32.25,-0.00358c2.967,0 5.375,2.40442 5.375,5.375c0,2.967 -2.40442,5.375 -5.375,5.375zM120.04167,91.37142l-68.08333,0.00358c-2.967,0 -5.375,-2.40442 -5.375,-5.375c0,-2.967 2.40442,-5.375 5.375,-5.375l68.08333,-0.00358c2.967,0 5.375,2.40442 5.375,5.375c0,2.967 -2.40442,5.375 -5.375,5.375zM120.04167,68.08333l-68.08333,0.00358c-2.967,0 -5.375,-2.40442 -5.375,-5.375c0,-2.967 2.40442,-5.375 5.375,-5.375l68.08333,-0.00358c2.967,0 5.375,2.40442 5.375,5.375c0,2.967 -2.40442,5.375 -5.375,5.375z"></path></g></g></svg>