<?xml version="1.0" standalone="no"?>
<!DOCTYPE svg PUBLIC "-//W3C//DTD SVG 20010904//EN"
 "http://www.w3.org/TR/2001/REC-SVG-20010904/DTD/svg10.dtd">
<svg version="1.0" xmlns="http://www.w3.org/2000/svg"
 width="700.000000pt" height="700.000000pt" viewBox="0 0 700.000000 700.000000"
 preserveAspectRatio="xMidYMid meet">
<metadata>
Created by potrace 1.14, written by Peter Selinger 2001-2017
</metadata>
<g transform="translate(0.000000,700.000000) scale(0.100000,-0.100000)"
fill="#000000" stroke="none">
<path d="M3378 6415 c-2 -1 -48 -5 -103 -9 -55 -3 -116 -8 -135 -11 -47 -7
-158 -25 -195 -31 -26 -4 -80 -16 -135 -29 -258 -62 -613 -209 -810 -336 -25
-16 -52 -32 -60 -36 -24 -11 -180 -122 -240 -170 -347 -278 -607 -596 -802
-978 -100 -195 -209 -496 -244 -670 -2 -11 -6 -31 -9 -45 -8 -37 -13 -63 -19
-106 -4 -22 -11 -66 -16 -99 -23 -143 -31 -440 -17 -625 7 -105 33 -283 54
-370 8 -36 16 -72 18 -80 30 -148 115 -388 200 -568 l44 -92 -24 -83 c-13 -46
-85 -304 -161 -573 -160 -573 -163 -591 -99 -719 63 -127 209 -212 344 -200
27 2 163 36 302 75 140 39 297 82 349 96 52 14 106 29 120 34 14 5 86 25 160
45 74 21 163 46 198 56 l63 19 47 -24 c180 -91 502 -203 692 -240 14 -2 48 -9
77 -15 29 -6 74 -13 100 -17 26 -3 59 -8 73 -10 173 -23 593 -23 705 1 11 2
42 7 69 10 190 23 450 93 668 181 103 42 328 151 378 185 14 9 63 40 110 70
482 307 897 803 1112 1329 65 158 144 411 162 515 3 17 7 41 10 55 13 68 26
150 31 200 3 30 8 82 12 115 13 122 6 468 -13 595 -57 391 -145 671 -306 980
-65 126 -221 371 -285 449 -214 262 -414 450 -661 620 -57 39 -105 71 -107 71
-1 0 -33 18 -70 40 -201 123 -549 264 -780 317 -63 14 -287 54 -325 58 -25 3
-72 8 -105 11 -58 6 -372 13 -377 9z m1613 -1777 c74 -44 115 -121 110 -208
-5 -82 -72 -168 -148 -189 -26 -7 -498 -11 -1460 -11 -1367 0 -1423 1 -1465
19 -179 76 -170 339 13 401 43 15 191 16 1476 16 l1428 -1 46 -27z m-37 -930
c184 -62 200 -322 23 -403 l-49 -23 -1422 -1 c-986 0 -1432 4 -1458 11 -84 25
-150 116 -150 208 0 89 64 179 147 207 42 14 2867 15 2909 1z m-1438 -957 c51
-23 103 -84 120 -140 27 -93 -13 -192 -100 -246 l-49 -30 -716 0 c-665 0 -718
1 -748 18 -109 59 -153 175 -108 285 20 48 84 108 130 121 16 5 345 10 730 10
662 1 702 0 741 -18z"/>
</g>
</svg>
